. 
  
http://www.torrentday.com/        :     The Hottest Private Tracker On The Net!!!
 
http://www.torrentday.com          :     Once & For all ;)


               www . TorrentDay . Com 

(((((((((((((= Enjoy No RAR releases =))))))))))))))))))))


...................................NFO:....................................

.                                                                                                     
       
     
     
       
       
     
     
                                         
                                         
                EXVID                    
                                         
         
                                         
         Filled the Archives             
                                         
         
                                         
                With:                    
                                         
         
                                         
                                    
     E240                           
                                    
     SP               (C) 2009      
                                         
     
     
     
                                                                                  
                                                                                   
                Marmaduke.2010.PROPER.DVDRip.XviD-EXViD                             
                                                                                   
                                                                                  
     
                                                                                               
EXViD aims to iNTERNAL those releases which have been lost in the archives.
EXViD aims to PRE non-internal releases which have poor sources and are likely skipped by others. 
http://www.imdb.com/title/tt1392197/
Subtitles: EN, FR, NL, HE, SR
Date: 2011.01

Director:
Tom Dey

Genres:
Comedy | Family

Plot:
A suburban family moves to a new neighborhood with their large yet lovable Great Dane, who has
a tendency to wreak havoc in his own oblivious way. 

Cast:
Credited cast:
Owen Wilson  ...  Marmaduke (voice)  
George  ...  Marmaduke  
Spirit  ...  Marmaduke  
Emma Stone  ...  Mazie (voice)  
Huck  ...  Mazie  
George Lopez  ...  Carlos (voice)  
Mai Tai  ...  Carlos  
Christopher Mintz-Plasse  ...  Giuseppe (voice)  
Dolly  ...  Giuseppe  
Steve Coogan  ...  Raisin (voice)  
Tyler  ...  Raisin  
Stacy Ferguson  ...  Jezebel (voice) (as Fergie)  
Blake  ...  Jezebel  
Kiefer Sutherland  ...  Bosco (voice)  
Axel  ...  Bosco      

Stats:
Format                           : AVI
Format/Info                      : Audio Video Interleave
File size                        : 700 MiB
Duration                         : 1h 24mn
Overall bit rate                 : 1 157 Kbps
Writing application              : VirtualDubMod 1.5.10.2 (build 2540/release)
Writing library                  : VirtualDubMod build 2540/release

Video
ID                               : 0
Format                           : MPEG-4 Visual
Format profile                   : Advanced Simple@L5
Format settings, BVOP            : Yes
Format settings, QPel            : No
Format settings, GMC             : No warppoints
Format settings, Matrix          : Default (H.263)
Muxing mode                      : Packed bitstream
Codec ID                         : XVID
Codec ID/Hint                    : XviD
Duration                         : 1h 24mn
Bit rate                         : 1 015 Kbps
Width                            : 640 pixels
Height                           : 272 pixels
Display aspect ratio             : 2.35:1
Frame rate                       : 25.000 fps
Color space                      : YUV
Chroma subsampling               : 4:2:0
Bit depth                        : 8 bits
Scan type                        : Progressive
Bits/(Pixel*Frame)               : 0.233
Stream size                      : 614 MiB (88%)
Writing library                  : XviD 1.2.1 (UTC 2008-12-04)

Audio
ID                               : 1
Format                           : MPEG Audio
Format version                   : Version 1
Format profile                   : Layer 3
Mode                             : Joint stereo
Mode extension                   : MS Stereo
Codec ID                         : 55
Codec ID/Hint                    : MP3
Duration                         : 1h 24mn
Bit rate mode                    : Variable
Bit rate                         : 128 Kbps
Channel(s)                       : 2 channels
Sampling rate                    : 48.0 KHz
Stream size                      : 77.9 MiB (11%)
Alignment                        : Aligned on interleaves
Interleave, duration             : 24 ms (0.60 video frame)
Interleave, preload duration     : 143 ms
Writing library                  : LAME3.90.
Encoding settings                : -m j -V 4 -q 2 -lowpass 17.6 --abr 128




Release notes:
RiPiD's was nuked for bad.deinterlace, OSHT was iNT.

Enjoy!

Looking for:
75TB+ Archives
DUTCH/FLEMiSH Archives
                                                                                                    
Greets: CRBS EPiSODE FiCO FLS iLS KLASSiGER LiPSYNC MADE NODLABS RUNNER TNAN       
   

                                                                    ASCII DONE BY XX^NFO 2oo9